# xmcd
#
# Track frame offsets: 
#        182
#        16057
#        33577
#        50140
#        62987
#        81930
#        101407
#        117957
#        134377
#        146402
#        160872
#        174515
#
# Disc length: 2583 seconds
#
# Revision: 6
# Processed by: cddbd v1.5.2PL0 Copyright (c) Steve Scherf et al.
# Submitted via: ExactAudioCopy v0.95b4
#
DISCID=a10a150c
DTITLE=Kenny Rogers - Geatest Hits
DYEAR=1981
DGENRE=Country
TTITLE0=The Gambler
TTITLE1=Lady
TTITLE2=Don't Fall In Love With A Dreamer
TTITLE3=Ruby Don't Take Your Love To Town
TTITLE4=She Believes In Me
TTITLE5=Coward Of The County
TTITLE6=Lucille
TTITLE7=You Decorated My Life
TTITLE8=Reuben James
TTITLE9=Love The World Away
TTITLE10=Every Time Two Fools Collide
TTITLE11=Long Arm Of The Law
EXTD=
EXTT0=
EXTT1=
EXTT2=
EXTT3=
EXTT4=
EXTT5=
EXTT6=
EXTT7=
EXTT8=
EXTT9=
EXTT10=
EXTT11=
PLAYORDER=
